<svg xmlns="http://www.w3.org/2000/svg" xmlns:xlink="http://www.w3.org/1999/xlink" version="1.1" width="189.289pt" height="184.373pt" viewBox="0 0 189.289 184.373">
<defs>
<clipPath id="clip_0">
<path transform="matrix(1,0,0,-1,0,184.373)" d="M0 184.373H189.289V0H0Z"/>
</clipPath>
</defs>
<g id="layer_1" data-name="">
<g clip-path="url(#clip_0)">
<path transform="matrix(1,0,0,-1,97.9834,83.3425)" d="M0 0V.005 8.071H-15.698V0C-15.698-11.091-24.721-20.113-35.812-20.113-44.203-20.113-51.408-14.946-54.418-7.627H-37.675C-29.005-7.627-21.978-.599-21.978 8.071H-54.229C-51.113 15.153-44.032 20.113-35.812 20.113-30.451 20.113-25.586 17.993-21.978 14.563V33.039C-26.233 34.823-30.907 35.811-35.812 35.811-55.589 35.811-71.623 19.778-71.623 0-71.623-19.778-55.589-35.812-35.812-35.812-28.354-35.812-21.432-33.53-15.698-29.631V-48.212C-7.028-48.212 0-41.184 0-32.515V-.006ZM-7.85 30.918C-12.734 30.918-16.695 26.958-16.695 22.072-16.695 17.187-12.734 13.226-7.85 13.226-2.964 13.226 .997 17.187 .997 22.072 .997 26.958-2.964 30.918-7.85 30.918M35.024-41.654C23.082-41.654 13.366-31.938 13.366-19.996 13.366-8.054 23.082 1.661 35.024 1.661 46.966 1.661 56.682-8.054 56.682-19.996 56.682-31.938 46.966-41.654 35.024-41.654M37.947 8.603C28.153 9.577 19.229 5.593 13.366-1.127V8.07H6.278V-69.84C6.278-73.754 9.452-76.928 13.366-76.928V-38.865C18.64-44.91 26.391-48.742 35.024-48.742 51.957-48.742 65.518-34.024 63.585-16.708 62.097-3.373 51.301 7.275 37.947 8.603" fill="#007934"/>
<path transform="matrix(1,0,0,-1,45.1216,35.414796)" d="M0 0C.005 .059 .042 .14 .007 .17-.036 .208-.137 .207-.22 .208-.234 .209-.32 .115-.309 .099-.277 .051-.214 .021-.163-.017-.109-.012-.055-.006 0 0M7.946-10.503C7.833-10.557 7.719-10.61 7.518-10.705 7.78-10.777 7.898-10.738 7.946-10.503M41.755-3.269C41.857-3.333 41.914-3.385 41.987-3.405 42.014-3.413 42.13-3.329 42.121-3.312 42.093-3.259 42.035-3.203 41.967-3.179 41.935-3.167 41.856-3.224 41.755-3.269M12.329-9.023C12.416-9.016 12.513-9.031 12.585-8.997 12.649-8.967 12.696-8.886 12.72-8.825 12.726-8.809 12.615-8.755 12.565-8.768 12.497-8.785 12.435-8.849 12.372-8.893 12.357-8.936 12.343-8.979 12.329-9.023M.736-13.236C.597-13.156 .468-13.136 .349-13.297 .321-13.335 .344-13.428 .385-13.444 .549-13.509 .65-13.412 .736-13.236M11.573-9.161C11.322-9.235 11.196-9.273 11.055-9.315 11.246-9.538 11.245-9.538 11.573-9.161M-18.551-15.711C-18.716-15.77-18.831-15.788-18.917-15.851-18.956-15.879-18.976-16.032-18.937-16.061-18.9-16.087-18.756-16.043-18.691-15.992-18.631-15.945-18.614-15.845-18.551-15.711M14.791-8.2C15.013-8.327 15.209-8.217 15.418-8.084 15.117-7.878 15.028-7.896 14.791-8.2M17.27-7.516C17.323-7.327 17.289-7.225 17.086-7.258 16.907-7.289 16.691-7.331 16.654-7.513 16.644-7.56 16.769-7.648 16.836-7.641 16.976-7.626 17.12-7.562 17.27-7.516M38.271-3.439C37.875-3.466 37.606-3.485 37.289-3.51 37.324-3.58 37.341-3.678 37.38-3.681 37.664-3.707 37.962-3.756 38.271-3.439M21.823-6.079C21.417-5.998 21.094-6.209 20.762-6.326 20.695-6.35 20.657-6.441 20.587-6.522 20.909-6.562 21.042-6.4 21.222-6.291 21.383-6.194 21.657-6.323 21.823-6.079M20.713-5.584C20.477-5.652 20.334-5.748 20.414-5.888 20.528-6.088 20.763-6.042 21.014-5.975 21.055-5.725 20.809-5.694 20.713-5.584M-21.224-18.822C-20.833-18.743-20.596-18.482-20.353-18.249-20.311-18.208-20.287-18.102-20.311-18.069-20.334-18.037-20.44-18.03-20.487-18.061-20.766-18.251-21.067-18.437-21.224-18.822M20.167-6.436C19.952-6.477 19.78-6.492 19.628-6.551 19.557-6.578 19.495-6.693 19.493-6.762 19.491-6.807 19.592-6.868 19.665-6.875 19.949-6.901 20.124-6.755 20.167-6.436M13.806-7.808C13.626-7.657 13.391-7.698 13.153-7.818 13.081-7.854 12.986-7.95 12.994-7.994 13.006-8.061 13.082-8.134 13.162-8.155 13.463-8.231 13.634-8.133 13.806-7.808M6.879-10.559C6.717-10.315 6.468-10.356 6.238-10.444 6.031-10.522 5.967-10.758 6.062-11.029 6.325-10.875 6.581-10.729 6.879-10.559M-2.109-1.524C-2.358-1.456-2.642-1.533-2.92-1.665-3.018-1.711-3.137-1.828-3.156-1.9-3.174-1.97-3.086-2.085-3.027-2.075-2.816-2.037-2.595-1.964-2.381-1.887-2.164-1.808-2.077-1.681-2.109-1.524M-15.699-13.618C-16.047-13.538-16.463-13.702-16.645-14.005-16.702-14.102-16.703-14.235-16.66-14.303-16.638-14.338-16.44-14.299-16.365-14.241-16.125-14.052-15.787-13.925-15.699-13.618M3.388-12.059C3.752-12.028 4.082-11.874 4.399-11.697 4.598-11.585 4.616-11.418 4.456-11.378 4.127-11.297 3.499-11.686 3.388-12.059M-21.96-15.631C-22.459-15.748-22.996-16.183-23.74-17.115-23.632-17.107-23.512-17.135-23.462-17.09-22.962-16.636-22.471-16.175-21.973-15.723-21.964-15.714-21.969-15.693-21.96-15.631M14.657-7.712C15.187-7.561 15.666-7.442 16.076-7.07 15.144-7.035 14.687-7.242 14.657-7.712M31.048-4.395C31.149-4.416 31.252-4.465 31.349-4.453 31.896-4.385 32.444-4.32 32.987-4.234 33.208-4.199 33.225-4.069 33.085-3.915 32.431-4.152 31.702-4.073 31.036-4.27 31.04-4.312 31.044-4.354 31.048-4.395M-13.128-21.176C-12.943-21.12-12.844-21.116-12.779-21.067-12.205-20.635-11.632-20.202-11.063-19.785-11.156-19.578-11.308-19.675-11.446-19.751-12.073-20.1-12.634-20.526-13.128-21.176M34.239-4.031C35.017-3.97 35.813-4.054 36.659-3.669 36.464-3.602 36.353-3.524 36.258-3.537 35.81-3.598 35.369-3.692 34.922-3.766 34.777-3.79 34.621-3.762 34.474-3.786 34.371-3.803 34.277-3.868 34.179-3.911 34.199-3.951 34.219-3.991 34.239-4.031M24.964-5.514C24.735-5.422 23.734-5.516 23.304-5.673 22.816-5.852 22.816-5.853 22.717-6.082 23.365-6.036 24.608-5.725 24.964-5.514M-5.736-16.26C-6.314-16.365-6.771-16.555-7.141-17.066-6.826-17.077-6.618-17.181-6.438-17.336-6.315-17.442-5.997-17.253-6.043-17.108-6.131-16.832-5.931-16.573-5.736-16.26M-10.414-18.983C-10.295-19.238-10.114-19.202-9.87-19.04-9.286-18.651-8.693-18.281-8.106-17.902-8.028-17.852-7.99-17.737-7.933-17.651-8.021-17.633-8.106-17.611-8.199-17.601-8.224-17.598-8.27-17.631-8.304-17.652-9.002-18.079-9.697-18.517-10.414-18.983M21.277-5.702C21.866-5.837 22.288-5.868 22.745-5.575 23.118-5.337 23.567-5.29 24.006-5.267 24.303-5.251 24.303-5.253 24.539-5.063 24.44-4.896 24.268-4.831 24.005-4.89 23.27-5.054 22.535-5.221 21.806-5.415 21.656-5.455 21.526-5.563 21.277-5.702M17.708-6.65C17.83-6.803 18.068-6.871 17.951-7.123 17.892-7.25 18.043-7.356 18.257-7.31 18.417-7.275 18.574-7.219 18.805-7.152 18.686-7.009 18.602-6.907 18.505-6.792 18.681-6.613 18.909-6.526 19.182-6.466 19.424-6.412 19.736-6.359 19.717-6.037 19.605-6.033 19.483-6.01 19.365-6.029 19.006-6.087 18.65-6.184 18.293-6.23 17.973-6.271 17.8-6.398 17.708-6.65M7.165-10.306C7.464-10.409 7.724-10.306 8-10.175 8.346-10.011 8.706-9.874 9.057-9.72 9.233-9.643 9.396-9.535 9.574-9.467 9.917-9.336 10.271-9.235 10.612-9.102 10.713-9.063 10.784-8.947 10.869-8.867 10.771-8.833 10.677-8.763 10.575-8.775 10.393-8.797 10.2-8.855 10.021-8.924 9.589-9.089 9.169-9.286 8.736-9.447 8.359-9.587 7.969-9.69 7.585-9.816 7.307-9.908 7.155-10.062 7.165-10.306M41.888-2.337C41.433-2.35 41.033-2.356 40.633-2.38 39.411-2.454 38.189-2.55 36.973-2.691 36.792-2.712 36.609-2.831 36.466-2.934 36.429-2.96 36.511-3.113 36.587-3.178 36.742-3.31 36.976-3.312 37.163-3.22 37.766-2.923 38.389-3 38.993-3.124 39.312-3.189 39.601-3.328 39.893-3.448 40.274-3.605 40.364-3.594 40.511-3.287 40.61-3.084 40.75-2.963 41.052-2.897 41.317-2.839 41.557-2.7 41.792-2.579 41.854-2.545 41.849-2.441 41.888-2.337M27.536-4.743C27.005-4.642 26.585-4.666 26.162-5.024 26.673-5.068 27.072-4.97 27.536-4.743M26.157-4.347C27.002-4.155 27.849-3.97 28.699-3.793 29.282-3.672 29.864-3.548 30.449-3.437 30.542-3.419 30.64-3.418 30.733-3.421 31.11-3.431 31.49-3.499 31.83-3.256 31.877-3.222 31.976-3.226 32.052-3.218 32.452-3.179 32.853-3.164 33.25-3.108 33.898-3.018 34.543-2.907 35.193-2.815 35.377-2.79 35.588-2.796 35.598-2.947 35.604-3.04 35.457-3.162 35.34-3.24 35.269-3.289 35.127-3.288 35.016-3.298 34.575-3.339 34.134-3.374 33.695-3.428 33.546-3.445 33.35-3.468 33.268-3.542 33.018-3.77 32.693-3.792 32.375-3.808 32.036-3.824 31.69-3.753 31.36-3.804 31.03-3.855 30.718-4.012 30.397-4.117 30.308-4.146 30.208-4.148 30.113-4.164 29.379-4.285 28.647-4.41 27.918-4.557 27.788-4.583 27.669-4.662 27.546-4.717 27.555-4.749 27.565-4.781 27.574-4.813 27.728-4.797 27.884-4.792 28.038-4.766 28.604-4.669 29.169-4.571 29.737-4.48 29.907-4.453 30.075-4.432 30.195-4.631 29.994-4.677 29.827-4.725 29.657-4.753 29.262-4.82 28.865-4.87 28.471-4.946 27.684-5.097 26.903-5.277 26.119-5.442 25.899-5.488 25.667-5.473 25.439-5.486L25.413-5.391C25.571-5.282 25.729-5.174 25.899-5.059 25.726-4.985 25.589-4.927 25.396-4.846 25.62-4.589 25.828-4.421 26.157-4.347M-8.807-5.711C-8.313-5.676-8.076-5.285-7.734-5.068-7.375-4.839-7.018-4.608-6.658-4.381-6.683-4.346-6.708-4.311-6.734-4.276-7.507-4.627-8.235-5.045-8.807-5.711M-10.523-6.988C-10.744-6.972-10.914-7.087-10.923-7.305-10.933-7.537-11.017-7.703-11.31-7.893-12.746-8.829-14.148-9.826-15.55-10.833-17.118-11.961-18.675-13.12-20.205-14.331-20.375-14.465-20.546-14.688-20.842-14.649-20.664-14.457-20.53-14.286-20.367-14.146-19.954-13.791-19.529-13.449-19.102-13.114-18.548-12.68-17.983-12.263-17.426-11.84-16.746-11.323-16.071-10.802-15.38-10.305-14.927-9.979-14.466-9.692-14.077-9.279-13.791-8.977-13.379-8.738-13.018-8.479-12.801-8.323-12.565-8.186-12.36-8.02-12.252-7.933-12.193-7.801-12.076-7.642-12.666-7.814-13.084-8.27-13.606-8.365-13.411-7.762-13.151-7.408-12.763-7.342-12.177-7.241-11.677-6.924-11.162-6.625-10.819-6.426-10.515-6.153-10.17-5.958-9.522-5.593-9.002-5.149-8.543-4.642-8.15-4.208-7.666-3.884-7.091-3.633-6.24-3.262-5.346-3.078-4.529-2.565-4.339-2.446-4.093-2.341-3.984-2.487-3.854-2.664-4.178-2.761-4.315-2.892-4.477-3.046-4.788-3.171-4.696-3.388-4.187-3.264-3.692-2.888-3.164-2.946-3.234-3.052-3.258-3.136-3.317-3.17-3.75-3.426-4.18-3.687-4.622-3.926-5.177-4.227-5.75-4.498-6.299-4.813-6.873-5.143-7.426-5.507-7.985-5.862-8.421-6.138-8.86-6.395-9.313-6.354-9.834-7.042-9.831-7.042-10.523-6.988M-8.103-14.686C-8.114-14.664-8.126-14.641-8.138-14.618-8.199-14.641-8.265-14.656-8.32-14.689-8.365-14.717-8.398-14.766-8.437-14.806-8.416-14.831-8.396-14.855-8.375-14.879-8.284-14.815-8.193-14.75-8.103-14.686M-22.214-24.266C-22.162-24.197-22.142-24.113-22.109-24.036-22.174-24.048-22.247-24.042-22.301-24.08-22.349-24.113-22.376-24.194-22.442-24.303-22.329-24.287-22.236-24.293-22.214-24.266M-22.968-24.892C-22.948-24.853-23.008-24.804-23.031-24.76-23.155-24.861-23.278-24.963-23.445-25.102-23.148-25.224-23.049-25.052-22.968-24.892M7.892 2.586C7.954 2.553 8.015 2.48 8.077 2.493 8.322 2.543 8.374 2.668 8.322 2.877 8.152 2.763 8.021 2.675 7.892 2.586M22.341 7.524C22.696 7.485 22.948 7.524 23.239 7.723 22.857 7.836 22.626 7.726 22.341 7.524M9.65 3.426C9.999 3.559 10.042 3.705 9.9 3.928 9.555 3.653 9.555 3.652 9.65 3.426M16.555 2.456C16.673 2.438 16.833 2.377 16.898 2.414 17.012 2.477 17.114 2.602 17.133 2.697 17.143 2.744 16.958 2.781 16.787 2.853 16.687 2.682 16.622 2.569 16.555 2.456M48.011-3.077C47.719-2.829 47.615-2.819 47.201-2.97 47.445-3.166 47.697-3.079 48.011-3.077M73.617 5.656C73.695 5.486 73.699 5.368 73.777 5.326 74.085 5.159 74.415 5.074 74.734 5.114 74.743 5.149 74.751 5.184 74.761 5.219 74.426 5.349 74.09 5.478 73.617 5.656M31.835 9.236C32.245 9.144 32.838 9.227 33.302 9.459 32.427 9.526 32.119 9.471 31.835 9.236M66.271-4.443C66.021-4.372 65.733-4.216 65.479-4.39 65.909-4.679 67.68-5.114 68.191-5.061 67.545-4.843 66.914-4.626 66.271-4.443M22.089 4.226C21.983 4.158 21.844 4.053 21.847 3.982 21.85 3.914 22.004 3.818 22.109 3.822 22.388 3.831 22.682 3.862 22.958 3.929 23.08 3.959 23.254 4.112 23.251 4.188 23.248 4.266 23.074 4.355 22.941 4.371 22.774 4.391 22.574 4.34 22.454 4.327 22.287 4.283 22.164 4.273 22.089 4.226M-14.048-18.625C-13.561-18.565-13.323-18.246-13.035-18.06-12.722-17.858-12.409-17.647-12.118-17.417-11.857-17.211-11.481-17.086-11.304-16.623-12.264-17.305-13.206-17.787-14.048-18.625M19.336 6.949C19.233 6.926 19.142 6.838 19.001 6.753 19.311 6.7 19.557 6.646 19.817 6.616 19.899 6.606 20.057 6.641 20.109 6.687 20.49 7.027 21.026 7.083 21.525 7.207 21.717 7.254 21.957 7.255 22.121 7.51 21.133 7.327 20.233 7.149 19.336 6.949M-.76-.963C-.969-1.071-1.125-1.214-1.014-1.319-.944-1.385-.621-1.384-.553-1.327-.177-1.009 .383-.753 .497-.339 .577-.052 .796 .058 1.106 .173 1.389 .278 1.669 .401 1.943 .53 2.379 .736 2.812 1.038 3.247 1.139 3.869 1.284 4.418 1.511 4.941 1.822 5.283 2.025 5.528 2.082 5.693 1.878 6.132 1.985 6.398 2.207 6.636 2.451 6.9 2.725 7.215 2.91 7.639 2.948 7.763 2.959 7.896 2.981 8.02 3.019 8.287 3.102 8.486 3.124 8.686 2.997 8.815 2.915 9.092 2.852 9.354 3.074 9.21 3.278 9.072 3.474 8.939 3.663 8.632 3.603 8.294 3.542 7.958 3.464 7.79 3.426 7.62 3.37 7.458 3.305 7.151 3.182 6.854 3.037 6.547 2.916 5.456 2.483 4.368 2.037 3.286 1.575 3.175 1.527 3.052 1.511 2.791 1.441 2.934 1.613 2.984 1.726 3.081 1.779 3.658 2.098 4.243 2.408 4.841 2.695 5.537 3.03 6.317 3.151 6.999 3.533 7.088 3.583 7.209 3.613 7.314 3.63 7.961 3.736 8.478 4.148 9.099 4.312 9.156 4.326 9.233 4.373 9.257 4.411 9.542 4.861 10.135 4.894 10.601 5.034 11.277 5.237 11.909 5.646 12.636 5.63 12.67 5.63 12.727 5.654 12.758 5.677 13.18 5.976 13.667 6.064 14.174 6.127 14.404 6.156 14.659 6.226 14.872 6.32 15.569 6.625 16.314 6.747 17.039 6.875 17.609 6.975 18.101 7.155 18.575 7.395 18.782 7.5 18.946 7.532 19.177 7.546 19.456 7.563 19.754 7.667 20.04 7.745 20.162 7.779 20.268 7.864 20.39 7.894 21.217 8.092 22.061 8.238 22.877 8.454 24.021 8.756 25.225 8.688 26.341 9.103 26.36 9.11 26.384 9.108 26.407 9.112 27.167 9.24 27.929 9.36 28.692 9.475 28.822 9.494 28.979 9.506 29.074 9.56 29.458 9.78 29.887 9.796 30.326 9.809 30.476 9.813 30.632 9.839 30.784 9.864 31.302 9.951 31.82 10.07 32.341 10.114 33.917 10.246 35.479 10.549 37.065 10.55 37.13 10.55 37.197 10.56 37.263 10.564 37.965 10.611 38.668 10.644 39.371 10.688 39.674 10.708 39.973 10.776 40.277 10.805 40.753 10.85 41.232 10.891 41.711 10.908 42.37 10.931 43.032 10.9 43.685 10.938 44.198 10.967 44.699 10.988 45.187 10.878 45.62 10.782 46.042 10.782 46.49 10.82 46.875 10.853 47.278 10.828 47.671 10.808 48.022 10.79 48.37 10.728 48.72 10.713 49.646 10.675 50.573 10.638 51.499 10.591 51.916 10.57 52.333 10.568 52.749 10.545 53.051 10.529 53.354 10.498 53.657 10.471 54.559 10.391 55.46 10.298 56.361 10.197 56.64 10.166 56.928 10.112 57.199 10.121 57.625 10.134 58.018 10.111 58.403 9.928 58.543 9.862 58.75 9.814 58.91 9.819 59.734 9.842 60.52 9.66 61.313 9.464 61.713 9.365 62.146 9.293 62.554 9.278 63.055 9.259 63.521 9.173 63.957 8.982 64.229 8.862 64.455 8.86 64.698 8.926 64.867 8.971 65.038 9.02 65.222 9.039 65.588 9.077 65.98 9.051 66.25 8.806 66.545 8.536 66.884 8.449 67.301 8.464 67.585 8.475 67.833 8.396 67.997 8.217 68.154 8.046 68.367 7.988 68.617 7.944 69.279 7.828 69.905 7.639 70.441 7.281 70.542 7.214 70.731 7.165 70.859 7.166 71.59 7.174 72.279 6.933 72.967 6.696 73.53 6.503 74.085 6.293 74.647 6.099 74.913 6.007 75.198 5.961 75.464 5.871 77.093 5.313 78.704 4.703 80.308 4.073 80.828 3.87 81.347 3.686 81.788 3.362 81.917 3.268 82.097 3.201 82.261 3.139 82.698 2.974 83.135 2.81 83.575 2.652 84.064 2.477 84.517 2.268 84.791 1.877 85.253 1.901 85.67 1.792 86.092 1.526 86.308 1.391 86.583 1.316 86.823 1.2 87.342 .949 87.856 .687 88.369 .421 88.76 .218 89.142-.006 89.541-.198 89.858-.351 90.208-.443 90.522-.604 91.655-1.183 92.769-1.8 93.876-2.433 93.954-2.477 94.022-2.535 94.1-2.577 94.739-2.922 95.365-3.298 96.013-3.62 96.792-4.008 97.571-4.361 98.302-4.882 99.046-5.412 99.857-5.9 100.667-6.335 101.184-6.614 101.68-6.903 102.171-7.23 102.716-7.593 103.289-7.918 103.844-8.273 103.995-8.37 104.165-8.471 104.277-8.593 104.721-9.075 105.261-9.427 105.822-9.778 106.246-10.043 106.656-10.341 107.054-10.647 107.652-11.107 108.235-11.586 108.81-12.075 109.069-12.295 109.33-12.525 109.55-12.772 109.973-13.244 110.384-13.684 110.976-14.014 111.521-14.318 111.958-14.776 112.224-15.304 112.409-15.67 112.646-15.973 113.055-16.232 113.227-16.341 113.432-16.609 113.477-16.775 113.574-17.127 113.812-17.389 114.111-17.659 114.351-17.875 114.581-18.104 114.818-18.324 115.705-19.146 115.957-19.908 115.745-20.605 115.59-21.117 115.73-21.807 115.361-22.188 115.31-22.241 115.325-22.375 115.349-22.48 115.417-22.78 115.315-22.963 115.157-23.111 115.002-23.255 114.843-23.394 114.687-23.536 114.519-23.688 114.368-23.836 114.443-24.175 114.475-24.321 114.381-24.508 114.26-24.534 113.949-24.599 113.869-24.845 113.792-25.106 113.684-25.472 113.501-25.767 113.219-25.995 112.742-26.38 112.414-26.888 112.317-27.583 112.296-27.736 112.187-27.91 112.046-27.924 111.391-27.991 111.076-28.435 110.786-28.885 110.431-29.435 109.97-29.827 109.32-30.058 108.642-30.298 108.024-30.079 107.291-29.425 107.095-29.251 106.884-29.089 106.667-28.956 106.308-28.736 105.976-28.502 105.691-28.172 105.43-27.871 105.144-27.587 104.859-27.306 104.077-26.529 103.278-25.774 102.472-25.03 101.743-24.355 101.01-23.693 100.202-23.107 98.573-21.928 96.948-20.76 95.277-19.68 94.835-19.395 94.43-19.03 93.913-18.893 93.848-18.875 93.782-18.812 93.719-18.766 93.412-18.532 93.112-18.288 92.792-18.07 92.435-17.828 92.056-17.618 91.695-17.385 90.547-16.642 89.391-15.919 88.218-15.231 88.038-15.125 87.838-15.048 87.659-14.942 87.074-14.597 86.493-14.248 85.902-13.914 85.582-13.732 85.25-13.568 84.928-13.388 83.782-12.745 82.631-12.111 81.456-11.529 80.434-11.023 79.391-10.563 78.346-10.113 77.282-9.656 76.214-9.203 75.126-8.811 73.167-8.103 71.189-7.478 69.232-6.781 68.095-6.376 66.913-6.085 65.742-5.785 65.219-5.65 64.693-5.531 64.164-5.427 63.876-5.37 63.687-5.267 63.535-5.056 63.23-4.634 62.871-4.562 62.341-4.757 62.188-4.813 61.972-4.892 61.835-4.848 61.073-4.602 60.225-4.836 59.501-4.415 59.477-4.4 59.428-4.415 59.392-4.41 58.583-4.29 57.773-4.185 56.963-4.08 55.994-3.954 55.024-3.833 54.053-3.73 54.019-3.727 53.988-3.701 53.947-3.682 53.917-3.565 53.888-3.445 53.856-3.321 53.6-3.251 53.348-3.208 53.127-3.12 52.701-2.948 52.279-2.952 51.833-3.008 51.539-3.045 51.226-3.029 50.922-3.042 50.789-3.048 50.656-3.061 50.524-3.071V-3.181C51.255-3.392 52.073-3.256 52.824-3.476 52.712-3.683 52.509-3.645 52.327-3.63 51.848-3.592 51.371-3.545 50.892-3.521 49.787-3.467 48.679-3.425 47.574-3.438 47.129-3.443 46.706-3.444 46.282-3.292 46.379-3.188 46.477-3.086 46.602-2.957 46.207-2.909 45.878-2.872 45.516-2.832 45.588-2.981 45.642-3.094 45.691-3.196 45.634-3.234 45.611-3.262 45.578-3.271 44.939-3.436 44.273-3.312 43.621-3.363 43.325-3.386 43.099-3.122 43.141-2.924 43.167-2.796 43.677-2.389 43.857-2.367 44.141-2.33 44.428-2.301 44.714-2.277 46.201-2.154 47.691-2.27 49.175-2.361 49.269-2.366 49.372-2.384 49.456-2.365 50.048-2.228 50.636-2.292 51.224-2.434 51.351-2.465 51.494-2.461 51.628-2.467 52.342-2.498 53.057-2.528 53.77-2.583 54.407-2.632 55.044-2.748 55.676-2.763 56.037-2.772 56.343-2.814 56.68-2.921 56.997-3.021 57.353-3.057 57.694-3.094 58.232-3.152 58.793-3.128 59.306-3.259 60.07-3.453 60.839-3.47 61.6-3.616 61.697-3.635 61.798-3.632 61.915-3.642 61.884-3.575 61.878-3.531 61.861-3.527 61.224-3.373 60.585-3.225 59.943-3.093 59.644-3.031 59.321-3.024 59.042-2.931 58.513-2.755 57.992-2.705 57.441-2.709 57.024-2.712 56.54-2.724 56.186-2.583 55.694-2.387 55.2-2.351 54.722-2.359 54.103-2.37 53.529-2.287 52.946-2.142 52.802-2.107 52.644-2.101 52.493-2.095 52.202-2.083 51.912-2.084 51.621-2.075 51.098-2.057 50.571-2.011 50.053-2.034 49.62-2.054 49.223-2.039 48.81-1.908 48.61-1.844 48.34-1.844 48.125-1.879 47.752-1.94 47.396-1.936 47.03-1.869 46.957-1.856 46.869-1.83 46.807-1.846 46.258-1.991 45.705-1.936 45.143-1.889 44.914-1.87 44.678-1.901 44.446-1.898 43.558-1.885 42.67-1.88 41.783-1.889 41.763-1.889 41.745-1.882 41.725-1.881 41.116-1.875 40.505-1.869 39.895-1.887 39.77-1.891 39.63-1.947 39.524-2.005 39.162-2.202 38.77-2.212 38.432-2.061 37.909-1.826 37.434-1.938 36.961-2.149 36.47-2.368 35.943-2.441 35.394-2.481 33.907-2.589 32.418-2.733 30.963-3.082 30.615-3.166 30.236-3.158 29.872-3.205 29.584-3.242 29.292-3.271 29.016-3.345 28.589-3.459 28.208-3.528 27.815-3.34 27.504-3.192 27.227-3.303 27.018-3.578 26.944-3.676 26.843-3.797 26.721-3.84 26.345-3.97 25.959-4.1 25.568-4.178 24.923-4.306 24.236-4.324 23.627-4.532 22.522-4.91 21.474-5.113 20.364-4.945 19.987-4.889 19.736-5.006 19.587-5.264 19.356-5.664 18.99-5.837 18.473-5.855 18.284-5.862 18.09-5.856 17.903-5.893 17.373-5.998 16.816-6.068 16.321-6.264 15.468-6.601 14.631-6.93 13.743-7.196 11.568-7.846 9.427-8.637 7.305-9.494 6.446-9.842 5.607-10.243 4.753-10.605 4.103-10.88 3.432-11.107 2.773-11.372 2.499-11.482 2.229-11.651 1.957-11.714 .876-11.964-.019-12.594-.928-13.187-1.006-13.238-1.061-13.319-1.141-13.401-1.104-13.469-1.049-13.522-1.044-13.59-1.039-13.654-1.068-13.775-1.114-13.798-1.206-13.845-1.333-13.864-1.421-13.85-1.486-13.84-1.542-13.768-1.551-13.706-1.571-13.567-1.659-13.478-1.828-13.566-1.935-13.621-2.025-13.779-2.062-13.89-2.103-14.014-2.075-14.137-2.078-14.294-2.354-14.3-2.547-14.291-2.746-14.314-2.964-14.34-3.206-14.351-3.406-14.449-4.069-14.775-4.739-15.113-5.359-15.521-5.864-15.854-6.398-16.102-6.917-16.264-7.403-16.416-7.801-16.664-8.158-16.967-8.878-17.579-9.69-18.034-10.464-18.564-10.914-18.872-11.446-19.053-11.821-19.479-12.193-19.903-12.674-20.159-13.153-20.401-13.428-20.541-13.69-20.647-13.872-20.927-13.939-21.032-14.076-21.131-14.194-21.206-14.552-21.431-14.924-21.631-15.273-21.874-15.764-22.214-16.24-22.583-16.716-22.953-17.979-23.935-19.223-24.958-20.45-26.016-20.553-26.104-20.666-26.182-20.77-26.262-20.936-26.124-20.875-25.955-20.705-25.791-20.177-25.279-19.641-24.778-19.092-24.293-18.464-23.739-17.83-23.195-17.175-22.682-16.553-22.194-15.902-21.749-15.267-21.286-14.897-21.017-14.501-20.757-14.187-20.443-13.768-20.025-13.308-19.699-12.81-19.409-12.598-19.286-12.375-19.177-12.175-19.036-10.894-18.13-9.602-17.252-8.29-16.416-7.255-15.756-6.206-15.126-5.155-14.508-4.611-14.188-4.07-13.862-3.531-13.536-3.347-13.425-3.1-13.291-3.147-13.097-3.204-12.864-3.506-12.991-3.709-13.055-3.989-13.142-4.26-13.316-4.539-13.416-5.136-13.628-5.525-14.004-5.802-14.529-6.16-14.283-6.531-14.425-6.905-14.779-6.978-14.848-7.07-14.905-7.135-14.978-7.376-15.244-7.667-15.389-8.003-15.509-8.475-15.679-8.92-15.922-9.212-16.361-9.265-16.441-9.403-16.546-9.489-16.562-9.976-16.649-10.389-16.961-10.754-17.268-11.126-17.581-11.468-17.871-11.925-18.009-12.008-18.035-12.111-18.113-12.175-18.184-12.862-18.944-13.772-19.433-14.571-20.062-15.337-20.666-16.153-21.214-16.936-21.812-17.636-22.348-18.328-22.898-19.011-23.465-19.27-23.68-19.51-23.919-19.762-24.145-19.944-24.308-20.13-24.47-20.322-24.622-20.824-25.022-21.373-25.34-21.799-25.877-22.111-26.27-22.51-26.645-23.086-26.868-23.003-26.688-22.977-26.558-22.897-26.476-22.687-26.263-22.451-26.077-22.231-25.874-22.096-25.749-21.949-25.618-21.85-25.474-21.453-24.901-20.983-24.404-20.402-23.984-20.083-23.752-19.78-23.466-19.504-23.18-18.988-22.644-18.465-22.134-17.833-21.728-17.361-21.424-16.902-21.074-16.46-20.719-15.886-20.257-15.332-19.772-14.767-19.303-14.686-19.236-14.627-19.145-14.48-18.975-14.663-19.04-14.737-19.049-14.793-19.088-15.206-19.376-15.634-19.652-16.017-19.978-16.706-20.566-17.5-21.016-18.14-21.674-18.251-21.788-18.417-21.858-18.556-21.952-19.011-22.257-19.471-22.556-19.913-22.886-20.508-23.331-21.09-23.801-21.667-24.28-22.156-24.685-22.687-25.062-22.977-25.647-23.022-25.74-23.189-25.865-23.293-25.899-23.853-26.081-24.396-26.174-24.998-26.291-24.908-25.953-24.702-25.675-24.445-25.41-24.202-25.157-23.932-24.921-23.717-24.654-23.487-24.369-23.25-24.167-22.933-24.021-22.767-23.944-22.588-23.786-22.448-23.639-22.169-23.343-21.919-23.025-21.64-22.729-21.327-22.397-20.998-22.079-20.645-21.731-21.047-21.623-21.3-22.124-21.626-22.196-21.488-21.909-21.488-21.909-21.229-21.675-20.796-21.286-20.304-20.953-20.083-20.407-20.036-20.289-19.768-20.167-19.605-20.042-19.499-19.96-19.389-19.875-19.297-19.779-19.063-19.535-18.851-19.272-18.602-19.044-18.398-18.857-18.146-18.719-17.931-18.541-17.433-18.126-16.953-17.689-16.441-17.295-15.483-16.557-14.498-15.862-13.518-15.168-12.14-14.194-10.75-13.25-9.337-12.351-9.177-12.249-9.006-12.164-8.839-12.075-8.487-11.888-8.104-11.742-7.789-11.517-7.368-11.217-6.875-10.999-6.522-10.615-6.467-10.555-6.337-10.532-6.244-10.487-5.75-10.246-5.256-10.014-4.885-9.604-4.824-9.536-4.716-9.45-4.64-9.437-4.302-9.376-4.049-9.133-3.75-9.003-3.372-8.837-2.973-8.659-2.596-8.59-2.234-8.525-1.996-8.392-1.757-8.149-1.439-7.826-1.071-7.593-.591-7.504-.398-7.468-.183-7.327 .008-7.214 .667-6.822 1.317-6.375 2.077-6.486 2.127-6.494 2.191-6.479 2.25-6.472 2.47-6.444 2.664-6.349 2.719-6.172 2.83-5.819 3.162-5.652 3.54-5.482 5.695-4.514 7.871-3.613 10.078-2.811 10.483-2.664 10.911-2.585 11.328-2.473 11.521-2.42 11.721-2.368 11.9-2.286 12.683-1.931 13.447-1.538 14.34-1.52 14.555-1.515 14.821-1.335 15.06-1.231 15.208-1.167 15.377-1.026 15.491-1.034 15.978-1.067 16.401-.985 16.854-.725 17.052-.611 17.365-.616 17.625-.568 18.145-.471 18.666-.381 19.186-.286 19.385-.249 19.636-.228 19.769-.133 20.146 .138 20.548 .296 21.037 .32 21.122 .324 21.237 .386 21.305 .441 21.652 .719 22.069 .774 22.503 .776 22.982 .778 23.43 .87 23.852 1.095 24.165 1.261 24.508 1.301 24.859 1.299 25.484 1.295 26.105 1.314 26.736 1.466 27.186 1.575 27.509 1.757 27.678 2.071 27.328 2.259 27.323 2.275 26.787 2.162 26.116 2.019 25.501 1.996 24.897 2.185 24.173 2.411 23.568 2.288 22.937 1.805 22.267 1.292 21.532 .995 20.601 .98 20.042 .971 19.453 .937 19.035 .484 18.978 .422 18.739 .398 18.604 .407 18.478 .417 18.38 .496 18.268 .541 17.872 .698 17.746 .694 17.336 .44 16.887 .16 16.419-.004 15.892 .021 15.618 .034 15.421-.061 15.245-.234 14.688-.779 14.69-.776 13.902-.603 13.296-.471 12.818-.631 12.421-1.098 12.397-1.126 12.378-1.155 12.354-1.183 12.108-1.465 12.036-1.485 11.643-1.468 11.356-1.455 11.058-1.473 10.763-1.48 10.423-1.489 10.196-1.644 10.115-1.882 10.039-2.105 9.871-2.198 9.599-2.275 9.16-2.398 8.718-2.531 8.293-2.701 7.52-3.011 6.763-3.36 6.001-3.701 5.621-3.871 5.192-3.991 4.862-4.211 4.372-4.54 3.86-4.804 3.317-5.026 2.486-5.366 1.657-5.713 .896-6.195 .878-6.207 .858-6.214 .839-6.224-.643-6.935-2.11-7.685-3.563-8.474-3.986-8.704-4.411-8.933-4.828-9.174-5.49-9.557-6.134-9.97-6.797-10.353-7.512-10.766-8.287-11.104-8.951-11.584-10.123-12.433-11.465-13.002-12.577-13.946-12.623-13.985-12.691-14.001-12.744-14.037-14.328-15.112-15.896-16.229-17.419-17.423-17.974-17.858-18.56-18.243-19.1-18.713-19.588-19.139-20.08-19.564-20.546-20.018-20.685-20.153-20.822-20.316-20.977-20.406-21.255-20.567-21.493-20.75-21.743-20.975-22.007-21.212-22.396-21.293-22.61-21.656-22.629-21.688-22.732-21.736-22.771-21.73-23.023-21.691-23.241-21.946-23.475-22.062-23.733-22.191-24.011-22.473-24.327-22.363-23.999-22.015-23.705-21.697-23.397-21.393-22.801-20.803-22.195-20.225-21.578-19.661-21.236-19.348-20.898-19-20.521-18.762-19.852-18.339-19.353-17.765-18.782-17.259-18.674-17.163-18.639-16.968-18.613-16.828-18.596-16.739-18.658-16.668-18.685-16.588-18.596-16.501-18.54-16.435-18.473-16.382-17.033-15.255-15.608-14.121-14.097-13.12-13.951-13.023-13.809-12.919-13.669-12.814-13.026-12.332-12.377-11.858-11.73-11.384-11.648-11.323-11.606-11.214-11.546-11.128-11.643-11.154-11.74-11.176-11.837-11.21-11.871-11.222-11.903-11.264-11.938-11.289-12.107-11.413-12.3-11.529-12.395-11.387-12.502-11.227-12.278-11.129-12.11-11.029-11.717-10.795-11.318-10.571-10.934-10.324-9.847-9.628-8.749-8.954-7.657-8.279-7.269-8.04-6.944-7.902-6.631-8.058-6.613-8.067-6.557-8.037-6.49-8.017-6.297-7.807-6.255-7.592-6.212-7.367-6.112-6.833-5.991-6.729-5.328-6.551-5.167-6.508-5.004-6.446-4.846-6.415-4.548-6.358-4.345-6.17-4.287-5.983-4.143-5.52-3.708-5.293-3.233-5.038-2.433-4.606-1.649-4.148-.853-3.714-.81-3.69-.788-3.633-.704-3.525-.884-3.556-1.016-3.553-1.127-3.604-1.577-3.806-2.016-4.033-2.461-4.248-3.028-4.523-3.592-4.806-4.162-5.074-4.532-5.249-4.918-5.384-5.289-5.558-5.498-5.656-5.725-5.771-5.888-5.915-6.438-6.403-7.079-6.775-7.707-7.172-7.909-7.299-8.118-7.434-8.286-7.589-8.607-7.886-8.912-8.042-9.254-7.932-9.448-7.87-9.656-7.954-9.879-8.087-11.179-8.864-12.475-9.659-13.742-10.51-15.091-11.416-16.41-12.378-17.716-13.366-18.146-13.691-18.581-14.011-18.996-14.356-20.202-15.359-21.382-16.4-22.543-17.47-22.639-17.559-22.772-17.665-22.803-17.753-22.908-18.05-23.149-18.088-23.368-18.229-23.571-18.361-23.73-18.615-23.981-18.621-24.028-18.622-24.062-18.595-24.112-18.578-23.913-18.268-23.721-17.973-23.524-17.673-22.845-17.393-22.316-16.84-21.82-16.325-21.443-15.934-21.057-15.572-20.641-15.226-20.45-15.067-20.242-14.914-20.083-14.736-19.256-13.817-18.2-13.151-17.248-12.385-17.179-12.33-17.094-12.294-17.022-12.242-16.474-11.852-15.893-11.497-15.378-11.079-14.525-10.386-13.653-9.737-12.681-9.236-12.486-9.136-12.301-9.002-12.118-8.876-11.608-8.525-11.105-8.165-10.583-7.833-8.486-6.499-6.379-5.206-4.235-3.988-2.602-3.06-.944-2.157 .792-1.44 .931-1.382 1.061-1.299 1.195-1.227 1.713-.949 2.232-.676 2.754-.406 3.009-.273 3.239-.209 3.408-.362 3.509-.453 3.683-.478 3.828-.351 4.094-.116 4.355 .135 4.269 .463 4.017 .344 3.805 .242 3.593 .141 3.458 .076 3.321-.018 3.188-.046 2.414-.212 1.711-.564 1.025-.954 .648-1.167 .288-1.41-.1-1.601-.81-1.951-1.531-2.281-2.247-2.625-2.363-2.681-2.495-2.701-2.655-2.748-2.557-2.448-2.297-2.315-2.055-2.17-1.729-1.976-1.609-1.758-1.649-1.515-1.706-1.164-1.683-1.132-1.201-.888-.948-.76-.69-.642-.347-.481-.428-.784-.424-.79-.76-.963" fill="#007934"/>
</g>
</g>
</svg>
